<?xml version="1.0" encoding="utf-8"?>
<!-- Generator: Adobe Illustrator 21.0.0, SVG Export Plug-In . SVG Version: 6.00 Build 0)  -->
<svg version="1.1" id="Layer_1" xmlns="http://www.w3.org/2000/svg" xmlns:xlink="http://www.w3.org/1999/xlink" x="0px" y="0px"
	 viewBox="0 0 13 13" style="enable-background:new 0 0 13 13;" xml:space="preserve">
<style type="text/css">
	.st0{fill:#FFFFFF;}
</style>
<title>Upload</title>
<desc>Created with Sketch.</desc>
<g id="Home">
	<g id="Outline" transform="translate(-384.000000, -384.000000)">
		<path id="Upload" class="st0" d="M386.9,390.3l2.9-2.9l0.5,0.5l-2.2,2.2h6.1v0.7h-6.1l2.2,2.2l-0.5,0.5l-2.9-2.9V390.3z
			 M390.5,395.8c2.9,0,5.4-2.3,5.4-5.3s-2.4-5.3-5.4-5.3s-5.4,2.4-5.4,5.3C385.2,393.4,387.5,395.8,390.5,395.8L390.5,395.8z
			 M390.5,396.5c-3.3,0-6-2.7-6-6s2.7-6,6-6s6,2.7,6,6C396.6,393.8,393.9,396.5,390.5,396.5L390.5,396.5z"/>
	</g>
</g>
</svg>
