<?xml version="1.0" encoding="utf-8"?>
<!-- Generator: Adobe Illustrator 21.0.0, SVG Export Plug-In . SVG Version: 6.00 Build 0)  -->
<svg version="1.1" id="Layer_1" xmlns="http://www.w3.org/2000/svg" xmlns:xlink="http://www.w3.org/1999/xlink" x="0px" y="0px"
	 viewBox="0 0 120 120" style="enable-background:new 0 0 120 120;" xml:space="preserve">
<style type="text/css">
	.st0{fill:#FFFFFF;}
</style>
<path class="st0" d="M104.6,63.1c-0.8-2.3-3.2-3.8-5.9-3.8c-0.8,0-1.5,0.1-2.2,0.4c-0.4,0.1-1.3,0.6-2.2,1.3
	c-1.1-2.5-3.6-4.1-6.4-4.1c-0.8,0-1.6,0.1-2.4,0.4c-1.5,0.6-2.8,1.6-3.6,2.9c-1.7-2.2-4.6-3.1-7.3-2.2c-1.8,0.6-3.1,1.9-3.9,3.6
	l-7-17.2c-0.9-2.4-2.6-4.1-4.8-4.8l-0.1-3.1c0-0.9-0.3-1.4-1.1-1.7c-0.8-0.3-1.5,0.1-2.1,0.7l-3.5,3.5l-8.3-8.3l20.7-20.7
	c1-1,1-3,0-4c-1-1-3-1-4,0L39.9,26.8L27.3,14.2c-1-1-3-1-4,0s-1,3,0,4l12.6,12.6L15.3,51.3l-3.5-3.5c-0.6-0.6-1.8-0.5-2.6-0.2
	c-0.8,0.3-1.6,1.4-1.6,2.2l0.6,10.6c0,1.2,0.8,2,2,2l10.6,0.6c0.9,0,1.9-0.8,2.2-1.6c0.3-0.8,0.4-2-0.2-2.6l-3.5-3.5l20.5-20.5
	l8.3,8.3l-3.5,3.5c-0.6,0.6-1.1,1.3-0.7,2.1c0.3,0.8,0.9,1.1,1.7,1.1l5.3,0.2l11.3,29.1c-0.6,0.7-1.5,1.9-2.5,3.7
	c-3.4,6.5-1,18.3,7.9,24.9c6.4,4.7,12.3,6.9,18.5,6.9c3.7,0,7.5-0.7,11.6-2.3c11.9-4.3,13.7-11.7,14.5-18.9
	C113.1,86.6,105,64.1,104.6,63.1z M109.3,93.1c-0.8,6.8-2.3,12.7-12.5,16.5c-3.8,1.4-7.3,2.1-10.6,2.1c-5.6,0-10.8-1.9-16.7-6.3
	c-5.3-3.9-10.7-14.1-7-21.1c0.4-0.8,0.8-1.4,1.1-1.9l3.8,9.8c0.3,0.8,1.2,1.2,1.9,0.9c0.8-0.3,1.2-1.2,0.9-1.9L53.4,48.2
	c-0.9-2.5,0-4.8,2.2-5.6c2.2-0.8,4.4,0.4,5.3,2.9l10.5,26c0.3,0.7,1.1,1.1,1.8,0.9c0.7-0.2,1.2-1,1.1-1.7l-0.8-4.5
	c0-0.1,0-0.2-0.1-0.2c-0.4-1-0.4-2.1,0-3.1c0.4-0.9,1.2-1.6,2.1-2c2-0.7,3.9,0.4,4.7,2.6l1,2.8v0c0.3,0.8,1.1,1.2,1.9,0.9
	c0.8-0.3,1.2-1.1,0.9-1.9l0,0c-0.4-1-0.3-2.1,0.1-3.1c0.5-1,1.3-1.7,2.3-2.1c0.4-0.2,0.9-0.2,1.4-0.2c1.7,0,3.2,1.1,3.8,2.6
	c0,0,2,5,2.5,6.1c0.4,1.1,1.1,1.3,1.9,1c0.8-0.3,1-1.1,0.7-2c-0.3-0.9-1.3-3.6-1.3-3.6c0.5-0.5,1.4-1.2,2.1-1.5
	c0.4-0.1,0.8-0.2,1.2-0.2c1.4,0,2.7,0.8,3.1,1.8C104.1,70.5,109.9,88,109.3,93.1z"/>
</svg>
