<?xml version="1.0" encoding="utf-8"?>
<!-- Generator: Adobe Illustrator 21.0.0, SVG Export Plug-In . SVG Version: 6.00 Build 0)  -->
<svg version="1.1" id="Layer_1" xmlns="http://www.w3.org/2000/svg" xmlns:xlink="http://www.w3.org/1999/xlink" x="0px" y="0px"
	 viewBox="0 0 120 120" style="enable-background:new 0 0 120 120;" xml:space="preserve">
<style type="text/css">
	.st0{fill:#FFFFFF;}
</style>
<g>
	<path class="st0" d="M96.2,61.7c-0.8-2.3-3.2-3.8-5.9-3.8c-0.8,0-1.5,0.1-2.2,0.4c-0.7,0.2-1.4,0.7-2.2,1.3
		c-1.1-2.5-3.6-4.1-6.4-4.1c-0.8,0-1.6,0.1-2.4,0.4c-1.6,0.6-2.8,1.7-3.6,3c-1.3-1.5-3.3-2.5-5.4-2.5c-0.8,0-1.6,0.1-2.4,0.4
		c-1.6,0.6-3.2,1.7-4.2,3.2l-6.2-17c-1.2-3.3-3.6-5.2-6.4-5.2c-0.7,0-1.5,0.1-2.3,0.4c-3.7,1.3-5.3,5.3-3.8,9.4l14.5,39.7L50,83.5
		c-1.1-0.5-2.3-0.8-3.5-0.8c-3.1,0-6,1.9-7.4,4.7c-0.9,2-1,4.2-0.3,6.3c0.7,2.1,2.2,3.7,4.2,4.6c0.1,0,7,3.7,16.5,8.2l1.5,0.7
		c6.1,2.9,11.9,5.6,18.6,5.6h0c3.2,0,6.4-0.6,9.8-1.8c11.9-4.3,13.7-11.7,14.5-18.9C104.7,85.1,96.5,62.7,96.2,61.7z M100.9,91.7
		c-0.8,6.8-2.3,12.7-12.5,16.5c-3,1.1-5.9,1.6-8.7,1.6h0c-6,0-11.3-2.5-17.3-5.3l-1.6-0.7c-9.5-4.4-16.3-8.1-16.4-8.1
		c-1.3-0.6-2.2-1.6-2.7-2.9c-0.5-1.3-0.4-2.7,0.2-4c0.9-1.8,2.6-3,4.7-3c0.8,0,1.5,0.2,2.2,0.5l10.8,5.4c0.5,0.3,1.2,0.2,1.7-0.2
		c0.5-0.4,0.6-1.1,0.4-1.6L45.7,46.6c-0.7-2-0.6-4.6,2-5.5c0.4-0.2,0.9-0.2,1.2-0.2c1.5,0,2.9,1.2,3.6,3.3l9.6,26.3
		c0.3,0.8,1.1,1.2,1.9,0.9c0.8-0.3,1.2-1.1,0.9-1.9l-1.4-3.8c-1.1-3.1,1.3-5.3,3.2-5.9c0.4-0.2,0.9-0.2,1.4-0.2
		c1.7,0,3.2,1.1,3.8,2.6l1.9,5.1l0,0c0.3,0.8,1.1,1.2,1.9,0.9c0.8-0.3,1.2-1.1,0.9-1.9l-0.9-2.4c-0.7-2.1,0.4-4.3,2.4-5.1
		c0.4-0.2,0.9-0.2,1.4-0.2c1.7,0,3.2,1.1,3.8,2.6l2.2,6l0,0.1c0.3,0.8,1.1,1.2,1.9,0.9c0.8-0.3,1.2-1.1,0.9-1.9L87,62.6
		c0.5-0.5,1.4-1.2,2.1-1.5c0.4-0.1,0.8-0.2,1.2-0.2c1.4,0,2.7,0.8,3.1,1.8C95.7,69.1,101.5,86.6,100.9,91.7z"/>
	<path class="st0" d="M41.3,52l-1.2-3.4c-0.1-0.2-0.1-0.4-0.2-0.5c-0.5,0-0.9,0.1-1.4,0.1C28.3,48.2,20,39.9,20,29.7
		s8.3-18.5,18.5-18.5c10.2,0,18.5,8.3,18.5,18.5c0,0.4,0,0.8,0,1.2l-0.1,0l-3.9-0.7c-0.6-0.1-1.2,0.2-1.5,0.7
		c-0.3,0.5-0.3,1.2,0,1.7l4.8,7c0.5,0.7,1.4,0.8,2.1,0.4l7-4.8c0.5-0.3,0.7-1,0.6-1.6c-0.1-0.6-0.6-1-1.2-1.2L61,31.6
		C61,31,61,30.3,61,29.7C61,17.3,51,7.2,38.5,7.2C26.1,7.2,16,17.3,16,29.7s10.1,22.5,22.5,22.5C39.5,52.2,40.4,52.1,41.3,52z"/>
</g>
</svg>
