<?xml version="1.0" encoding="utf-8"?>
<!-- Generator: Adobe Illustrator 21.0.0, SVG Export Plug-In . SVG Version: 6.00 Build 0)  -->
<svg version="1.1" id="Layer_1" xmlns="http://www.w3.org/2000/svg" xmlns:xlink="http://www.w3.org/1999/xlink" x="0px" y="0px"
	 viewBox="0 0 100 100" style="enable-background:new 0 0 100 100;" xml:space="preserve">
<style type="text/css">
	.st0{fill:#FFFFFF;}
	.st1{fill:#D03027;}
</style>
<path class="st0" d="M71,87.8c-10.7,5.2-19.8,4.8-30.4-1.5C31,80.7,27.4,69.2,30.1,62.4c0.8-2,1.6-3.2,2.1-4L17.5,29.9
	c-1.9-3.9-0.6-8.1,3-9.8c2.2-1.1,4.6-0.9,6.5,0.3L26,18.5c-1.7-3.5-0.4-7.6,3-9.3c3.3-1.6,7.2-0.2,8.9,3.4l12,24.5
	c0.5-1.2,1.7-2.3,3-2.9c3.3-1.6,7.3-0.3,9.1,2.8c0.9-0.8,1.7-1.4,2-1.5c3.1-1.5,7.1-0.3,8.5,2.5C73,39,83.5,60.5,83.4,67.5
	C83.3,74.7,82.4,82.3,71,87.8z"/>
<path class="st1" d="M33.7,61.5c-0.3,0.5-0.5,1.2-0.9,2c-2.9,7.3,3.5,16.9,9.2,20.2c9.8,5.8,17.8,6.1,27.6,1.3s10.7-10.9,10.7-17.7
	c0-5.2-7.6-22-10.5-28c-0.7-1.3-2.8-2-4.5-1.2c-0.6,0.3-2.1,1.5-1.9,1.7l1.7,3.4c0.4,0.7,0,1.7-0.7,2c-0.7,0.4-1.4,0-1.8-0.7
	l-2.8-5.8c-1-2-3.4-2.8-5.3-1.8c-2,1-2.8,3.4-1.8,5.3c0.4,0.7,0,1.7-0.7,2c-0.7,0.4-1.7,0-2-0.7L35.4,14c-0.8-1.7-2.7-3.1-4.9-2.1
	c-1.9,0.9-2.7,3.2-1.7,5.3l14.5,31.6c0.4,0.7,0.5,1.7-0.6,2.2c-1.1,0.5-1.7-0.2-2.1-0.9L27.4,25.3c-1.2-2.4-3.5-3.4-5.6-2.4
	s-2.8,3.4-1.6,5.8l21.1,40.9c0.4,0.7,0.1,1.6-0.7,2c-0.7,0.4-1.6,0.1-2-0.7L33.7,61.5z"/>
</svg>
