<?xml version="1.0" encoding="utf-8"?>
<!-- Generator: Adobe Illustrator 21.0.0, SVG Export Plug-In . SVG Version: 6.00 Build 0)  -->
<svg version="1.1" id="Layer_1" xmlns="http://www.w3.org/2000/svg" xmlns:xlink="http://www.w3.org/1999/xlink" x="0px" y="0px"
	 viewBox="0 0 100 100" style="enable-background:new 0 0 100 100;" xml:space="preserve">
<style type="text/css">
	.st0{fill:#FFFFFF;}
</style>
<g>
	<path class="st0" d="M54.8,91.9c-11.9,0-19.9-4.4-26.7-14.7C21.9,68,23.7,56,29.1,51.1c1.6-1.4,2.8-2.2,3.6-2.7l-0.7-32
		c0-4.3,3-7.5,7-7.5s7,3.2,7,7.5l0.7,18.6c1.2-1.3,2.9-2.1,4.8-2.1c2.9,0,5.2,1.8,6.1,4.5c1.2-1,2.7-1.5,4.4-1.5
		c3.7,0,6.7,2.9,7,6.5c1.1-0.3,2.1-0.5,2.5-0.5c3.5,0,6.5,2.8,6.5,6c0,1,0,24.9-3.2,31.2C71.6,85.5,67.4,91.9,54.8,91.9z M32.8,51.9
		c-0.5,0.3-1,0.8-1.7,1.4c-5.8,5.3-4.3,16.7-0.6,22.2c6.3,9.5,13.3,13.3,24.2,13.3c10.9,0,14.4-5.1,17.4-11.2
		c2.3-4.7,2.8-23.1,2.8-29.8c0-1.5-1.7-3-3.5-3c-0.7,0-1.9,0.4-2.5,0.7v3.8c0,0.8-0.7,1.5-1.5,1.5S66,50.2,66,49.4v-6.5
		c0-2.2-1.8-4-4-4s-4,1.8-4,4c0,0.8-0.7,1.5-1.5,1.5S55,43.7,55,42.9v-3c0-1.9-1.1-4-3.5-4c-2.1,0-3.7,1.7-3.7,4c0,0.1,0,0.2,0,0.2
		L47,44.6c-0.1,0.8-0.8,1.3-1.6,1.3c-0.8,0-1.4-0.7-1.4-1.4l-1-28c0-2.7-1.6-4.6-4-4.6s-4,1.9-4,4.5l1,46c0,0.8-0.6,1.5-1.5,1.5
		c-0.8,0-1.5-0.6-1.5-1.5L32.8,51.9z"/>
</g>
</svg>
