<?xml version="1.0" encoding="utf-8"?>
<!-- Generator: Adobe Illustrator 21.0.0, SVG Export Plug-In . SVG Version: 6.00 Build 0)  -->
<svg version="1.1" id="Layer_1" xmlns="http://www.w3.org/2000/svg" xmlns:xlink="http://www.w3.org/1999/xlink" x="0px" y="0px"
	 viewBox="0 0 100 100" style="enable-background:new 0 0 100 100;" xml:space="preserve">
<style type="text/css">
	.st0{fill:#FCFCFC;}
	.st1{fill:#D03027;}
</style>
<path class="st0" d="M71,87.8c-10.7,5.2-19.8,4.8-30.5-1.5C31,80.8,27.3,69.3,30,62.4c0.8-2,1.5-3.2,2.1-4L17.4,30
	c-1.9-3.9-0.6-8.1,3-9.8c2.2-1.1,4.7-0.9,6.7,0.4l-1-2.1c-1.7-3.5-0.5-7.5,3-9.2c3.4-1.7,7.3-0.1,9,3.4l1.1,2.2
	c1.1-2.2,2.1-3.8,4-4.7c3.5-1.7,7.7-0.3,9.4,3.2l10.4,23.1c0.5-0.5,1-0.8,1.5-1.1c3-1.5,6.6-0.2,8,2.8C73,39,83.5,60.5,83.4,67.5
	C83.3,74.8,82.3,82.3,71,87.8z"/>
<path class="st1" d="M33.7,61.6c-0.3,0.5-0.6,1.2-0.9,2c-2.9,7.3,3.5,16.9,9.2,20.2c9.8,5.8,17.8,6.1,27.6,1.4
	c9.8-4.8,10.7-10.8,10.8-17.7c0.1-5.2-7.6-22-10.5-28.1c-0.7-1.5-2.5-2.1-4-1.4c-0.5,0.3-1.2,0.9-1.4,1.3c0.5,1,1.5,3.3,1.6,3.6
	c0.3,0.8,0,1.6-0.8,2c-0.8,0.3-1.5-0.1-1.8-0.8L50.1,14.5c-0.9-1.9-3.4-2.7-5.4-1.8c-2,1-3,3.6-2.1,5.5l9.7,22.9
	c0.3,0.7,0.2,1.8-0.8,2.3c-1,0.5-2-0.4-2.3-1.1L35.4,14c-1-2-3.1-3-5-2c-2,1-2.6,3.2-1.7,5.3l14.3,31.4c0.3,0.7,0,1.6-0.7,2
	c-0.7,0.4-1.6,0.1-2-0.6L27.3,25.2c-1-2-3.1-3.5-5.6-2.3c-2.1,1-2.8,3.4-1.6,5.8l21,40.9c0.4,0.7,0.1,1.6-0.6,2
	c-0.8,0.4-1.6,0.1-2-0.6L33.7,61.6z"/>
</svg>
