<?xml version="1.0" encoding="utf-8"?>
<!-- Generator: Adobe Illustrator 21.0.0, SVG Export Plug-In . SVG Version: 6.00 Build 0)  -->
<svg version="1.1" id="Layer_1" xmlns="http://www.w3.org/2000/svg" xmlns:xlink="http://www.w3.org/1999/xlink" x="0px" y="0px"
	 viewBox="0 0 100 100" style="enable-background:new 0 0 100 100;" xml:space="preserve">
<style type="text/css">
	.st0{fill:#FFFFFF;}
</style>
<g>
	<path class="st0" d="M71,87.9c-10.7,5.2-19.8,4.8-30.5-1.5C30.9,80.8,27.3,69.3,30,62.5c0.8-2,1.5-3.2,2.1-4L17.4,30.1
		c-1.9-3.9-0.6-8.1,3-9.8c2.2-1.1,4.7-0.9,6.6,0.3l-0.9-2.1c-1.7-3.5-0.2-7.6,3.3-9.3c3.4-1.7,7.5-0.3,9.3,3.3l1.1,2.2
		c0.2-1.8,1.8-3.6,3.7-4.6c3.5-1.7,7.6-0.2,9.3,3.3l3.2,7.1c0.5-1.5,1.5-2.7,3-3.4c3-1.5,6.6-0.2,8,2.8c0,0,0,0.1,0,0.1
		c0,0,4.6,11.7,9.4,23.8c0.6,1.5,1.2,2.9,1.7,4.2c3.7,9.3,5.4,13.5,5.4,19.7C83.3,74.8,82.3,82.4,71,87.9z M33.7,61.7
		c-0.3,0.5-0.6,1.2-0.9,2C29.9,71,36.3,80.5,42,83.9c9.8,5.8,17.8,6.1,27.6,1.4c9.8-4.8,10.7-10.8,10.8-17.7
		c0.1-5.6-1.6-9.6-5.1-18.6c-0.5-1.3-1.1-2.7-1.7-4.2C69,33.2,64.6,22,64.2,21c-0.7-1.5-2.5-2-4-1.3c-1.5,0.7-2.1,2.5-1.4,4
		c0,0,0,0.1,0.1,0.1l7.2,19.3c0.3,0.8-0.1,1.6-0.8,1.9c-0.7,0.3-1.6,0-1.9-0.8L50,14.7c-0.9-1.9-3.3-2.8-5.3-1.8c-2,1-3,3.5-2.1,5.5
		l9.8,22.9c0.3,0.7,0.3,1.7-0.5,2.1c-0.8,0.4-1.7-0.5-2.1-1.2L36,13.8c-1-2-3.3-2.8-5.2-1.9c-2,1-2.8,3.3-1.8,5.3l14.4,31.7
		c0.3,0.7,0.1,1.9-0.6,2.2c-0.7,0.3-1.7-0.1-2.1-0.9L27.4,25.4c-1.2-2.4-3.5-3.4-5.6-2.4s-2.8,3.4-1.6,5.8l21.1,41.1
		c0.4,0.7,0,2-0.5,2.2c-0.6,0.3-1.8-0.1-2.1-0.9L33.7,61.7z"/>
</g>
</svg>
