<?xml version="1.0" encoding="utf-8"?>
<!-- Generator: Adobe Illustrator 21.0.0, SVG Export Plug-In . SVG Version: 6.00 Build 0)  -->
<svg version="1.1" id="Layer_1" xmlns="http://www.w3.org/2000/svg" xmlns:xlink="http://www.w3.org/1999/xlink" x="0px" y="0px"
	 viewBox="0 0 100 100" style="enable-background:new 0 0 100 100;" xml:space="preserve">
<style type="text/css">
	.st0{fill:#FFFFFF;}
</style>
<g>
	<path class="st0" d="M72.9,88.4c-11,5.3-19.1,2.5-28.6-0.8L42.7,87c-10-3.4-17.2-6.4-17.3-6.4c-4.2-1.4-6.5-6.1-5-10.4
		c0.7-2.1,2.2-3.7,4.1-4.7s4.2-1.1,6.3-0.4l7.3,2.7L15.8,32.4c0,0-0.1-0.1-0.1-0.1c-1.9-3.8-0.6-8.1,3-9.8c2.1-1,6.2-1.9,9.5,3.5
		c0.9,1.6,4.6,6.6,8.3,11.5L28,18.9c-1.7-3.5-0.3-7.6,3.1-9.3c3.4-1.7,7.4-0.2,9.1,3.3l6.2,12.7l-2.1-7.1c-1.2-4.1,0.2-7.6,3.5-9.2
		c1.6-0.8,3.2-0.8,4.8-0.2c1.8,0.7,3.2,2.4,4,4.6c0.5,1.5,4.5,11.9,7.6,20l-0.9-11.4c-0.3-3.6,1.1-6.5,3.8-7.8
		c2.2-1.1,5.7,0,7.2,3.1c1,2.1,1.7,6.4,2.5,11.9c0.8,5.3,1.7,11.2,3.1,16.1c0.3,1.1,0.7,2.3,1.2,3.6C84.6,59.8,91.1,79.4,72.9,88.4z
		 M25.9,68.2c-1.2,0.6-2.2,1.7-2.6,3c-0.9,2.7,0.5,5.7,3.2,6.6c0.1,0.1,7.3,3,17.2,6.4l1.6,0.6c9.2,3.2,16.4,5.7,26.3,0.9
		c15.9-7.8,10.3-24.5,6.7-35.5c-0.5-1.4-0.9-2.6-1.2-3.7c-1.5-5-2.4-11.1-3.2-16.5c-0.7-4.8-1.4-9.3-2.2-11c-0.7-1.5-2.5-2-3.2-1.7
		c-2.1,1-2.2,3.5-2.1,4.9L68.1,44c0.1,0.7-0.4,1.4-1.2,1.6c-0.7,0.2-1.5-0.2-1.7-0.9c-0.4-1.1-10.5-27.5-11.4-30
		c-0.5-1.4-1.3-2.4-2.3-2.8c-0.7-0.3-1.5-0.3-2.3,0.1c-2.8,1.3-2.4,4.1-2,5.7l6.9,23.9c0.2,0.7-0.2,1.5-0.9,1.8
		c-0.7,0.3-1.5,0-1.9-0.7L37.6,14.3c-1-2-3.2-2.9-5.1-2c-2,1-2.7,3.3-1.7,5.3l14.4,31.4c0.3,0.7,0.1,1.5-0.6,1.9
		c-0.7,0.4-1.5,0.2-2-0.4C41.9,49.8,27.8,31,25.7,27.5c-2.1-3.5-4.1-3.2-5.6-2.4c-2.1,1-2.8,3.4-1.7,5.7L43,69.9
		c0.3,0.5,0.3,1.2-0.1,1.7c-0.4,0.5-1.1,0.7-1.7,0.5L29.8,68C28.5,67.5,27.1,67.6,25.9,68.2z"/>
</g>
</svg>
