<?xml version="1.0" encoding="utf-8"?>
<!-- Generator: Adobe Illustrator 21.0.0, SVG Export Plug-In . SVG Version: 6.00 Build 0)  -->
<svg version="1.1" id="Layer_1" xmlns="http://www.w3.org/2000/svg" xmlns:xlink="http://www.w3.org/1999/xlink" x="0px" y="0px"
	 viewBox="0 0 100 100" style="enable-background:new 0 0 100 100;" xml:space="preserve">
<style type="text/css">
	.st0{fill:#FFFFFF;}
</style>
<g>
	<path class="st0" d="M54.7,94.9c-11.9,0-19.9-4.4-26.7-14.7C21.8,71,23.6,59,29,54.1c1.6-1.4,2.8-2.2,3.6-2.7l-0.7-32
		c0-4.3,3-7.5,7-7.5c2.4,0,4.5,1.2,5.7,3.1l0-2.1c0-3.9,3-7,6.8-7c3.7,0,6.5,3,6.5,7v27.3c1-0.8,2.5-1.3,4-1.3c3.7,0,6.7,2.9,7,6.5
		c1.1-0.3,2.1-0.5,2.5-0.5c3.4,0,6.5,2.8,6.5,6c0,1,0,24.9-3.2,31.2C71.5,88.5,67.3,94.9,54.7,94.9z M32.7,54.9
		c-0.5,0.3-1,0.8-1.7,1.4c-5.8,5.3-4.3,16.7-0.6,22.2c6.3,9.5,13.3,13.3,24.2,13.3c10.9,0,14.4-5.1,17.4-11.2
		c2.3-4.7,2.8-23.1,2.8-29.8c0-1.5-1.7-3-3.5-3c-0.7,0-2.5,0.4-2.5,0.7v3.8c0,0.8-0.7,1.5-1.5,1.5S66,53.2,66,52.4v-6.5
		c0-2.2-1.8-4-4-4s-4,1.8-4,4c0,0.8-0.7,1.5-1.5,1.5S55,46.7,55,45.9v-33c0-1.9-1.1-4-3.5-4c-2.1,0-3.8,1.7-3.8,4l-0.8,34.8
		c0,0.8-0.3,1.7-1.5,1.7s-1.5-0.9-1.5-1.7l-1-28.1c0-2.7-1.6-4.6-4-4.6s-4,1.8-4,4.5l1,46c0,0.8-0.6,1.5-1.5,1.5
		c-0.8,0-1.5-0.6-1.5-1.5L32.7,54.9z"/>
</g>
</svg>
