<?xml version="1.0" encoding="utf-8"?>
<!-- Generator: Adobe Illustrator 21.0.0, SVG Export Plug-In . SVG Version: 6.00 Build 0)  -->
<svg version="1.1" id="Layer_1" xmlns="http://www.w3.org/2000/svg" xmlns:xlink="http://www.w3.org/1999/xlink" x="0px" y="0px"
	 viewBox="0 0 100 100" style="enable-background:new 0 0 100 100;" xml:space="preserve">
<style type="text/css">
	.st0{fill:#FFFFFF;}
	.st1{fill:#D03027;}
</style>
<path class="st0" d="M71,82.4c-10.7,5.2-19.8,4.8-30.4-1.5C31,75.3,27.4,63.8,30.1,57c0.8-2,1.6-3.2,2.1-4L17.5,24.5
	c-1.9-3.9-0.6-8.1,3-9.8s7.7-0.2,9.6,3.7l8.8,16.4c0.5-1.7,1.7-3.2,3.4-4c2.6-1.3,5.5-0.7,7.5,1.4c0.6-1.4,1.8-2.5,3.3-3.3
	c3.3-1.6,7.3-0.3,9.1,2.8c0.9-0.8,1.7-1.4,2-1.5c3.1-1.5,7.1-0.3,8.5,2.5c0.4,0.9,10.9,22.4,10.8,29.4C83.3,69.3,82.4,76.9,71,82.4z
	"/>
<path class="st1" d="M33.7,56.1c-0.3,0.5-0.5,1.2-0.9,2C29.9,65.4,36.3,75,42,78.3c9.8,5.8,17.8,6.1,27.6,1.3
	c9.8-4.8,10.7-10.9,10.7-17.7c0-5.2-7.6-22-10.5-28c-0.7-1.3-2.8-2-4.5-1.2c-0.6,0.3-1.5,1.2-1.9,1.7l1.7,3.4c0.4,0.7,0,1.7-0.7,2
	c-0.7,0.4-1.5,0.1-1.9-0.6l-2.8-5.8c-1-2-3.4-2.8-5.3-1.8c-2,1-2.8,3.4-1.8,5.3c0.4,0.7,0,1.7-0.7,2c-0.7,0.4-1.7,0-2-0.7l-1.3-2.7
	c-0.8-1.7-2.7-3.1-4.9-2.1c-1.9,0.9-2.6,3.1-1.6,5.2c0,0.1,0.1,0.2,0.1,0.2l1.3,4.4c0.3,0.8-0.1,1.5-0.9,1.9c-0.7,0.4-1.6,0-1.9-0.6
	L27.4,19.8c-1.2-2.4-3.5-3.4-5.6-2.4s-2.8,3.5-1.6,5.8l21.1,40.9c0.4,0.7,0.1,1.6-0.7,2c-0.7,0.4-1.6,0.1-2-0.7L33.7,56.1z"/>
</svg>
