<?xml version="1.0" encoding="utf-8"?>
<!-- Generator: Adobe Illustrator 21.0.0, SVG Export Plug-In . SVG Version: 6.00 Build 0)  -->
<svg version="1.1" id="Layer_1" xmlns="http://www.w3.org/2000/svg" xmlns:xlink="http://www.w3.org/1999/xlink" x="0px" y="0px"
	 viewBox="0 0 100 100" style="enable-background:new 0 0 100 100;" xml:space="preserve">
<style type="text/css">
	.st0{fill:#FFFFFF;}
</style>
<path class="st0" d="M35.5,82.9c1,0,24.9,0,31.2-3.2c6.5-3.2,12.8-7.5,12.8-20.1c0-5.1-1.3-10-3.5-14.3l0,0c-2.1-4.5-5.9-8.3-9.6-12
	l-1.2-1.2c-7.4-7.4-13.3-12.7-13.3-12.7c-1.5-1.5-3.6-2.3-5.8-2.3c-2.2,0-4.2,0.9-5.8,2.4c-1.6,1.5-2.4,3.6-2.4,5.8s0.9,4.2,2.4,5.8
	l6.1,6.7l-13,0l-1.4,0c-4.4,0-7.5,2.9-7.5,6.9c0,1.6,0.5,3,1.3,4.1c-3.5,1-5.3,4.4-5.3,7.7c0,3,1.9,5.6,4.6,6.6
	c-1,1.2-1.6,2.8-1.6,4.4c0,3.7,2.8,6.7,6.4,7c-0.3,0.9-0.4,1.8-0.4,2.3C29.5,80,32.2,82.9,35.5,82.9z M35.5,79.9c-1.6,0-3-1.5-3-3.2
	c0-0.7,0.4-1.7,0.6-2.2H37c0.8,0,1.5-0.7,1.5-1.5s-0.7-1.5-1.5-1.5h-6.5c-2.2,0-4-1.8-4-4s1.8-4,4-4H33c0.8,0,1.5-0.7,1.5-1.5
	s-0.7-1.5-1.5-1.5h-5.5c-2.2,0-4-1.8-4-4c0-2,1.2-5,4.5-5h4c0.8,0,1.5-0.7,1.5-1.5s-0.7-1.5-1.5-1.5c-2.1,0-4.5-1.1-4.5-3.8
	c0-2.7,2.3-4.1,4.5-4.1h5.3l0,0l12.8,0c0.6,0,1.2-0.1,1.4-0.7c0.2-0.6,0.1-1.2-0.4-1.6l-8.7-9.1c-1-1-1.5-2.3-1.5-3.6
	s0.5-2.7,1.5-3.7c1-1,2.3-1.5,3.7-1.5c1.4,0,2.7,0.5,3.7,1.5c0.1,0.1,5.9,5.3,13.3,12.6l1.2,1.2c2.3,2.3,4.5,4.5,6.3,6.7
	c3.9,4.9,5.9,10.9,5.9,17.4c0,10.9-5.1,14.4-11.2,17.4C60.7,79.4,42.2,79.9,35.5,79.9z"/>
</svg>
