<?xml version="1.0" encoding="utf-8"?>
<!-- Generator: Adobe Illustrator 21.0.0, SVG Export Plug-In . SVG Version: 6.00 Build 0)  -->
<svg version="1.1" id="Layer_1" xmlns="http://www.w3.org/2000/svg" xmlns:xlink="http://www.w3.org/1999/xlink" x="0px" y="0px"
	 viewBox="0 0 150 150" style="enable-background:new 0 0 150 150;" xml:space="preserve">
<style type="text/css">
	.st0{fill:#FFFFFF;}
	.st1{fill:#A6A8AB;}
	.st2{fill:#808184;}
</style>
<g>
	<path class="st0" d="M36.9,29.2c-1.6,2.6-3.1,5.3-4.4,7.9c-0.4,0.8,0,1.7,0.8,2c2.8,1.1,5.4,2.2,8,3.5c0.5,0.3,1,0.3,1.4-0.1
		c0.5-0.4,0.4-0.9,0.3-1.5c-0.3-1.1-0.7-2.2-1-3.4c17.3-5.1,35.6-5.7,53.3-1.6c1,0.2,2.3-0.5,2.6-1.4c0.3-1-0.6-2.2-1.7-2.5
		c-18.3-4.3-37.4-3.7-55.3,1.6c-0.4-1.4-0.9-2.9-1.3-4.3c-0.2-0.6-0.5-1.1-1.2-1.1C37.7,28.4,37.2,28.6,36.9,29.2z"/>
	<path class="st0" d="M106.1,21.2c1.6,2.6,3.1,5.3,4.4,7.9c0.4,0.8,0,1.7-0.8,2c-2.8,1.1-5.4,2.2-8,3.5c-0.6,0.3-1,0.3-1.4-0.1
		c-0.5-0.4-0.4-0.9-0.3-1.5c0.3-1.1,0.7-2.2,1-3.4c-17.3-5.1-35.6-5.7-53.3-1.6c-1,0.2-2.3-0.5-2.6-1.4c-0.3-1,0.6-2.2,1.7-2.5
		c18.3-4.3,37.4-3.7,55.3,1.6c0.4-1.4,0.9-2.9,1.3-4.3c0.2-0.6,0.5-1.1,1.2-1.1C105.3,20.4,105.8,20.6,106.1,21.2z"/>
	<path class="st0" d="M76.6,131.4c-6.7,0-12.5-2.7-18.6-5.6l-1.6-0.7c-9.5-4.4-16.4-8.1-16.5-8.2c-1.9-0.9-3.4-2.5-4.2-4.6
		c-0.7-2.1-0.6-4.3,0.3-6.3c1.3-2.9,4.2-4.7,7.4-4.7c1.2,0,2.4,0.3,3.5,0.8l7.4,3.7L39.1,66.4c-0.7-1.9-0.7-3.9,0-5.6
		c0.7-1.8,2.1-3.2,4-3.9c2.3-0.8,4.7-0.4,6.6,1L49,55.9c-0.6-1.7-0.6-3.6,0.2-5.3c0.8-1.7,2.1-3,3.9-3.6c0.8-0.3,1.5-0.4,2.3-0.4
		c2.9,0,5.4,1.8,6.4,4.7l0.9,2.3c0.1-0.2,0.2-0.4,0.3-0.6c0.8-1.7,2.3-3,4-3.6c0.8-0.3,1.6-0.4,2.4-0.4c2.9,0,5.6,1.9,6.6,4.6
		l2.4,7.4c0.6-1.4,1.8-2.5,3.4-3.1c0.7-0.2,1.4-0.4,2.1-0.4c2.5,0,4.8,1.6,5.6,3.9c0,0,0,0.1,0,0.1c0,0,3.3,12.1,6.8,24.6
		c0.4,1.6,0.8,3,1.2,4.3c2.7,9.6,4,14,3.3,20.2c-0.8,7.2-2.6,14.6-14.5,18.9C83,130.8,79.8,131.4,76.6,131.4z M43.5,104.3
		c-2,0-3.8,1.2-4.7,3c-0.6,1.3-0.7,2.7-0.2,4s1.4,2.4,2.7,2.9c0.1,0.1,7,3.7,16.4,8.1l1.6,0.7c6,2.8,11.3,5.3,17.3,5.3
		c2.8,0,5.7-0.5,8.7-1.6c10.3-3.7,11.8-9.7,12.5-16.5c0.6-5.5-0.6-9.8-3.2-19c-0.4-1.3-0.8-2.8-1.2-4.3c-3.4-12-6.6-23.6-6.8-24.6
		c-0.6-1.5-2.3-2.3-3.8-1.7c-1.6,0.6-2.4,2.3-1.8,3.8c0,0,0,0.1,0,0.1l5.1,19.9c0.2,0.8-0.3,1.6-1,1.8c-0.8,0.2-1.6-0.2-1.8-1
		L73.1,54.5c-0.6-1.5-2.1-2.6-3.7-2.6c-0.5,0-0.9,0.1-1.4,0.2c-1,0.4-1.9,1.2-2.4,2.2c-0.5,1-0.6,2.1-0.2,3.1l7.2,23.5
		c0.2,0.8-0.2,1.6-1,1.9c-0.8,0.3-1.6-0.1-1.9-0.9L59,52.3c-0.8-2.1-2.9-3.2-4.9-2.5c-1,0.4-1.8,1.1-2.2,2c-0.4,1-0.5,2-0.1,3.1
		l11,32.8c0.3,0.8-0.1,1.6-0.9,1.9c-0.8,0.3-1.6-0.1-1.9-0.8l-10.5-26c-0.9-2.5-3.1-3.7-5.3-2.9c-1.1,0.4-1.9,1.1-2.3,2.2
		c-0.4,1-0.4,2.2,0,3.4l16.6,42.9c0.2,0.6,0.1,1.2-0.4,1.6s-1.1,0.5-1.7,0.2l-10.9-5.3C45,104.5,44.2,104.3,43.5,104.3z"/>
	<path class="st1" d="M43,88.2c0.3,0,0.6-0.1,0.9-0.1c0.8,0,1.6,0.1,2.3,0.3c-0.4-1.1-0.4-2.3,0-3.4c0-0.1,0.1-0.2,0.1-0.2L45,81.4
		c-0.7,0.8-1.2,1.6-1.6,2.6C42.9,85.4,42.7,86.8,43,88.2z"/>
	<path class="st2" d="M38.7,102.9c0.9-0.6,1.8-1.1,2.8-1.3c-0.8-0.9-1.3-1.5-1.4-1.5c-1-1-1.5-2.3-1.5-3.7c0-1.4,0.6-2.7,1.5-3.7
		c1-1,2.3-1.5,3.7-1.5c1.4,0,2.7,0.5,3.6,1.5l3.1,3.2L48,89.3c-1.3-0.7-2.7-1.2-4.2-1.2c-2.2,0-4.2,0.9-5.8,2.4
		c-3.2,3.2-3.2,8.4-0.1,11.5C38,102.1,38.2,102.4,38.7,102.9z"/>
	<g>
		<path class="st2" d="M61.2,50c0.1,0,0.2,0,0.3,0c1.1,0,2.1,0.4,2.8,1.2c0.7-0.7,1.6-1.3,2.6-1.7c-1.3-1.6-3.2-2.5-5.3-2.5
			c-1,0-1.9,0.2-2.8,0.6C59.7,48.1,60.6,48.9,61.2,50z"/>
		<path class="st2" d="M97.5,60.9c-1.7,0-3.2,0.7-4.2,1.8l0.2-7.8c0-3.9-3.1-7-7-7c-2.2,0-4.2,1-5.5,2.5v-2.5c0-3.9-3-7-6.8-7
			c-3.9,0-6.9,3.1-6.9,7l0,1.4c0.7-0.2,1.3-0.3,2-0.3c0.3,0,0.7,0,1,0.1l0-1.1c0-2.2,1.7-4,3.9-4c2.1,0,3.8,1.7,3.8,4v11.9l0.4,1.2
			c0.6-1.4,1.8-2.5,3.4-3.1c0.1,0,0.2-0.1,0.3-0.1l0.1-2.8c0-2.1,2-4,4.2-4c2.2,0,4,1.8,4,4l-0.3,9.3c0.7,2.6,1.9,7,3.4,12.2
			l0.9-9.3c0,0,0-0.1,0-0.1c0-1.7,1.3-3,3-3c1.6,0,3,1.3,3,2.9c-0.1,1-1,13-2,25.4c0,0.4-0.1,0.8-0.1,1.2c1.1,3.9,1.9,6.9,2.3,9.6
			c0.2-1.8,0.3-3.8,0.5-6.1c0.1-1.4,0.2-2.9,0.3-4.5c1-13,2-25.5,2-25.5c0,0,0-0.1,0-0.1C103.5,63.6,100.8,60.9,97.5,60.9z"/>
	</g>
	<path class="st1" d="M113.6,71.8c-1.5-0.5-3.2-0.4-4.6,0.2l2.9-7.2c0.6-1.8,0.6-3.7-0.2-5.4c-0.8-1.7-2.2-3-3.9-3.6
		c-2-0.7-4.3-0.5-6,0.5l0.8-2.3c0.6-1.8,0.6-3.6-0.1-5.3c-0.7-1.7-2.1-3-3.9-3.6c-0.8-0.3-1.6-0.4-2.4-0.4c-2.7,0-5.2,1.7-6.3,4.1
		c0.9,0.5,1.7,1.3,2.3,2.2l0.3-0.7c0.6-1.6,2-2.7,3.7-2.7c0.4,0,0.9,0.1,1.3,0.2c1,0.4,1.7,1.1,2.1,2c0.4,0.9,0.4,2,0,3.1l-2.9,8
		c0.2,0,0.4,0,0.7,0c1.3,0,2.5,0.4,3.4,1.1l0.4-1c0.6-1.5,2.1-2.6,3.9-2.6c0.5,0,1,0.1,1.5,0.3c1,0.4,1.8,1.1,2.3,2.1
		c0.5,1,0.5,2.1,0.1,3l-6.7,16.7c-0.3,3.4-0.6,7.1-0.9,11l7.1-14.9c0,0,0-0.1,0.1-0.1c0.4-1.2,1.6-2,2.8-2c0.3,0,0.7,0.1,1,0.2
		c1.5,0.6,2.3,2.3,1.8,3.8c-0.4,0.9-5.4,11.8-10.6,23.2c-0.7,1.5-1.3,2.8-1.9,4.1c-0.3,0.8-0.7,1.5-1,2.1c0,0.9-0.1,1.8-0.2,2.7
		c-0.3,2.7-0.8,5.5-1.9,8.1c1.8-2.9,3.4-6.5,5.7-11.7c0.6-1.3,1.2-2.6,1.8-4.1c5.4-11.9,10.6-23.3,10.6-23.3c0,0,0-0.1,0-0.1
		C118.3,76.4,116.7,73,113.6,71.8z"/>
</g>
</svg>
